<?xml version="1.0" encoding="utf-8"?>
<!-- Generator: Adobe Illustrator 18.0.0, SVG Export Plug-In . SVG Version: 6.00 Build 0)  -->
<!DOCTYPE svg PUBLIC "-//W3C//DTD SVG 1.1//EN" "http://www.w3.org/Graphics/SVG/1.1/DTD/svg11.dtd">
<svg version="1.1" id="Слой_1" xmlns="http://www.w3.org/2000/svg" xmlns:xlink="http://www.w3.org/1999/xlink" x="0px" y="0px"
	 viewBox="0 0 612.3 611.2" enable-background="new 0 0 612.3 611.2" xml:space="preserve">
<g>
	<path fill="#C7C7C7" d="M313,0.1C139.9-3.5,3.3,135.1,0.1,299.2c-3.4,170.7,133.9,309.3,300.7,312C474.4,614,613.1,473,612.3,305.7
		C613,139.9,478.6,3.5,313,0.1z M300.2,583.2C148.7,580.7,24,454.9,27,299.8c2.9-149,127-275,284.3-271.7
		c150.4,3.1,272.4,127,271.8,277.6C583.9,457.7,457.9,585.8,300.2,583.2z"/>
	<path fill="#C7C7C7" d="M305.5,70C174.9,70,69,175.5,69.1,305.6c0,129.6,105.7,235.5,235,235.5c131.2,0.1,237-105,237.2-235.4
		C541.3,175.8,435.6,70.1,305.5,70z M490.1,308.4C400.7,363.6,311.2,418.8,221.7,474c-2.3,1.4-4.9,4.6-7.3,3.3
		c-2.8-1.5-1.2-5.5-1.2-8.4c-0.1-54.7-0.1-109.3-0.1-164c0-55.2,0-110.3,0-165.5c0-2.3-1.1-5.3,0.9-6.6c2.2-1.5,4.2,1.2,6.1,2.4
		c90.1,55.5,180.1,111.1,270.1,166.6C495.2,304.9,495.2,305.3,490.1,308.4z"/>
</g>
</svg>
