<svg version="1.1" id="Слой_1" xmlns="http://www.w3.org/2000/svg" xmlns:xlink="http://www.w3.org/1999/xlink" x="0px" y="0px"
     viewBox="0 0 51.1 35" style="enable-background:new 0 0 51.1 35;" xml:space="preserve">
<style type="text/css">
	.st0{fill:#77787B;}
</style>
  <g>
	<path class="st0" d="M0,24.2l0,3.3C0,28.9,1.1,30,2.5,30h3.7c0.8,2.9,3.4,5,6.6,5c3.1,0,5.8-2.2,6.6-5h4.3h8.5c0.8,2.9,3.4,5,6.6,5
		c3.1,0,5.8-2.2,6.6-5h3.2c1.4,0,2.5-1.1,2.5-2.5v-3.3c0-1.3-1-2.4-2.3-2.5v-6.5c0-2.5-2-4.5-4.5-4.5l-2.9-0.5l-5.3-8
		c-0.1-0.1-0.1-0.2-0.2-0.3C35.1,0.7,33.9,0,32.3,0l-8.7,0l-7.9,0L4.7,0C3.1,0,1.8,1.3,1.8,2.9v15.2v0.4v3.3C0.7,22-0.1,23,0,24.2z
		 M35.3,28.1c0-1.9,1.6-3.5,3.5-3.5c1.9,0,3.5,1.6,3.5,3.5s-1.6,3.5-3.5,3.5C36.9,31.5,35.3,29.9,35.3,28.1z M9.3,28.1
		c0-1.9,1.6-3.5,3.5-3.5c1.9,0,3.5,1.6,3.5,3.5s-1.5,3.5-3.5,3.5C10.8,31.5,9.3,29.9,9.3,28.1z"/>
</g>
</svg>

