<svg version="1.1" id="Слой_1" xmlns="http://www.w3.org/2000/svg" xmlns:xlink="http://www.w3.org/1999/xlink" x="0px" y="0px"
     viewBox="0 0 47.7 35" style="enable-background:new 0 0 47.7 35;" xml:space="preserve">
<style type="text/css">
	.st0{fill:#77787B;}
</style>
  <g>
	<path class="st0" d="M8.4,21.4c-1.3-0.7-1.8-2.4-1.1-3.7l3.3-6.1l-9.3,0c-0.7,0-1.3,0.6-1.3,1.3l0,20c0,0.7,0.6,1.3,1.3,1.3l30.6,0
		L8.4,21.4z"/>
    <path class="st0" d="M14,8.3L8.5,18.3c-0.4,0.6-0.1,1.5,0.5,1.8l27.1,14.8c0.6,0.4,1.5,0.1,1.8-0.5l5.5-10.1L14,8.3z"/>
    <path class="st0" d="M46,19.7l1.6-2.9c0.4-0.6,0.1-1.5-0.5-1.8L19.9,0.3c-0.6-0.4-1.5-0.1-1.8,0.5l-1.6,2.9L46,19.7z"/>
</g>
</svg>
