<svg version="1.1" id="Слой_1" xmlns="http://www.w3.org/2000/svg" xmlns:xlink="http://www.w3.org/1999/xlink" x="0px" y="0px"
     viewBox="0 0 37.9 35" style="enable-background:new 0 0 37.9 35;" xml:space="preserve">
<style type="text/css">
	.st0{fill:#77787B;}
</style>
  <g>
	<path class="st0" d="M23.1,17c1.2-1.3,2-2.1,2-2.1s5.9,2,8.8-0.7c3.6-3.3,1.9-8.4,1.9-8.4l-3.9,3.6l-4.1-0.9l-0.6-4.2l3.9-3.6
		c0,0-4.9-2.1-8.6,1.2c-2.9,2.7-1.4,8.7-1.4,8.7s-1,0.8-2.5,2L23.1,17z"/>
    <path class="st0" d="M14.9,15.7C9.5,19.9,2.7,25.5,1.9,26c-1.2,0.9-1.8,2.1-1.8,3.2c0,1.1-0.1,2.7-0.1,2.7L1,33l1,1.1
		c0,0,1.6,0.1,2.7,0.1c1.1,0.1,2.3-0.4,3.3-1.5C8.7,32,15,25.5,19.7,20.5L14.9,15.7z M5.1,31.8c-0.7,0.7-1.9,0.6-2.6-0.1
		c-0.7-0.7-0.6-1.9,0.1-2.6c0.7-0.7,1.9-0.6,2.6,0.1C5.8,29.9,5.8,31.1,5.1,31.8"/>
    <polygon class="st0" points="25.3,17 23.2,19.1 9.9,5.8 10.4,4 5.3,0.8 4.4,1.7 3.6,2.6 6.8,7.7 8.4,7.1 21.8,20.6 19.7,22.7
		32.2,35 37.9,29.4 	"/>
</g>
</svg>
