<svg width="70" height="70" viewBox="0 0 70 70" fill="none" xmlns="http://www.w3.org/2000/svg">
  <path d="M20.5826 48.6156H49.4189C52.1072 48.6156 47.1508 36.8154 47.1508 36.8154C46.8572 36.1133 46.1511 35.6632 45.476 35.3866L40.916 33.2871L38.7252 31.4398L35.205 34.9408H35.2023L36.7212 45.0957C36.7261 45.131 36.7178 45.1661 36.6968 45.1949L35.1088 47.3686C35.0831 47.4033 35.0429 47.4237 34.9999 47.4237C34.9569 47.4237 34.9167 47.4033 34.8916 47.3686L33.303 45.1949C33.2822 45.1661 33.2734 45.131 33.279 45.0957L34.7977 34.9408H34.7953L31.2754 31.4398L29.0846 33.2871L24.5249 35.3866C23.8503 35.6632 23.1872 36.0837 22.8498 36.8154C22.8505 36.8154 17.8943 48.6156 20.5826 48.6156Z" fill="#797777"/>
  <path d="M35.0002 32.3773C38.4782 32.3773 43.144 28.032 43.2231 20.7456C43.2736 15.6893 40.8656 12.6635 35.0002 12.6635C29.1346 12.6635 26.7258 15.6893 26.7772 20.7456C26.8561 28.032 30.9296 32.3773 35.0002 32.3773ZM33.3471 22.7763C37.5994 23.2291 41.3072 17.2817 41.247 22.6068C41.2109 25.7943 38.2541 30.6079 35.0008 30.6079C31.5862 30.6079 29.2297 26.6074 28.7543 22.6086C28.239 18.2716 36.1993 19.2599 33.3471 22.7763Z" fill="#797777"/>
  <path d="M66.7963 4.73926H3.20366C1.43428 4.73926 0 6.17354 0 7.94292V53.3364C0 55.1059 1.43428 56.5401 3.20366 56.5401H66.7963C68.5657 56.5401 70 55.1059 70 53.3364V7.94292C70 6.17354 68.5657 4.73926 66.7963 4.73926ZM65.1945 51.7346H4.80549V9.54475H65.1945V51.7346Z" fill="#797777"/>
  <path d="M0 61.6346C0 62.612 0.792264 63.4044 1.76954 63.4044H18.8075V59.8649H1.76954C0.792264 59.8649 0 60.6573 0 61.6346Z" fill="#797777"/>
  <path d="M68.2301 59.8649H25.6536V63.4046H68.2301C69.2075 63.4046 69.9998 62.6122 69.9998 61.6347C69.9998 60.6571 69.2075 59.8649 68.2301 59.8649Z" fill="#797777"/>
  <path d="M22.2312 58.0099C21.0577 58.0099 20.103 58.9647 20.103 60.1381V63.1308C20.103 64.3043 21.0577 65.2591 22.2312 65.2591C23.4045 65.2591 24.3591 64.3043 24.3591 63.1308V60.1381C24.3591 58.9647 23.4045 58.0099 22.2312 58.0099Z" fill="#797777"/>
</svg>
